<mxfile host="app.diagrams.net" agent="Mozilla/5.0 (Windows NT 10.0; Win64; x64) AppleWebKit/537.36 (KHTML, like Gecko) Chrome/133.0.0.0 Safari/537.36" version="26.1.0">
  <diagram name="PÃ¡gina-1" id="zZh6c0xV9MqJUIs3Pymj">
    <mxGraphModel dx="794" dy="454" grid="1" gridSize="10" guides="1" tooltips="1" connect="1" arrows="1" fold="1" page="1" pageScale="1" pageWidth="827" pageHeight="1169" math="0" shadow="0">
      <root>
        <mxCell id="0" />
        <mxCell id="1" parent="0" />
        <mxCell id="ySuO9UoZPmW4dLaZ_qgD-1" value="&lt;font style=&quot;vertical-align: inherit;&quot;&gt;&lt;font style=&quot;vertical-align: inherit;&quot;&gt;VISITANTE&lt;/font&gt;&lt;/font&gt;" style="whiteSpace=wrap;html=1;aspect=fixed;" vertex="1" parent="1">
          <mxGeometry x="110" y="545" width="80" height="80" as="geometry" />
        </mxCell>
        <mxCell id="ySuO9UoZPmW4dLaZ_qgD-2" value="" style="endArrow=none;html=1;rounded=0;" edge="1" parent="1">
          <mxGeometry width="50" height="50" relative="1" as="geometry">
            <mxPoint x="125" y="545" as="sourcePoint" />
            <mxPoint x="100" y="500" as="targetPoint" />
          </mxGeometry>
        </mxCell>
        <mxCell id="ySuO9UoZPmW4dLaZ_qgD-3" value="id_visitante" style="ellipse;whiteSpace=wrap;html=1;" vertex="1" parent="1">
          <mxGeometry x="50" y="450" width="100" height="50" as="geometry" />
        </mxCell>
        <mxCell id="ySuO9UoZPmW4dLaZ_qgD-4" value="" style="endArrow=none;html=1;rounded=0;" edge="1" parent="1" target="ySuO9UoZPmW4dLaZ_qgD-5">
          <mxGeometry width="50" height="50" relative="1" as="geometry">
            <mxPoint x="160" y="545" as="sourcePoint" />
            <mxPoint x="210" y="495" as="targetPoint" />
          </mxGeometry>
        </mxCell>
        <mxCell id="ySuO9UoZPmW4dLaZ_qgD-5" value="nome" style="ellipse;whiteSpace=wrap;html=1;" vertex="1" parent="1">
          <mxGeometry x="150" y="455" width="110" height="35" as="geometry" />
        </mxCell>
        <mxCell id="ySuO9UoZPmW4dLaZ_qgD-6" value="" style="endArrow=none;html=1;rounded=0;" edge="1" parent="1">
          <mxGeometry width="50" height="50" relative="1" as="geometry">
            <mxPoint x="60" y="675" as="sourcePoint" />
            <mxPoint x="110" y="625" as="targetPoint" />
          </mxGeometry>
        </mxCell>
        <mxCell id="ySuO9UoZPmW4dLaZ_qgD-8" value="cpf" style="ellipse;whiteSpace=wrap;html=1;" vertex="1" parent="1">
          <mxGeometry x="20" y="670" width="90" height="40" as="geometry" />
        </mxCell>
        <mxCell id="ySuO9UoZPmW4dLaZ_qgD-9" value="" style="endArrow=none;html=1;rounded=0;" edge="1" parent="1">
          <mxGeometry width="50" height="50" relative="1" as="geometry">
            <mxPoint x="150" y="675" as="sourcePoint" />
            <mxPoint x="160" y="625" as="targetPoint" />
          </mxGeometry>
        </mxCell>
        <mxCell id="ySuO9UoZPmW4dLaZ_qgD-10" value="foto" style="ellipse;whiteSpace=wrap;html=1;" vertex="1" parent="1">
          <mxGeometry x="110" y="670" width="90" height="50" as="geometry" />
        </mxCell>
        <mxCell id="ySuO9UoZPmW4dLaZ_qgD-11" value="" style="endArrow=none;html=1;rounded=0;exitX=1;exitY=1;exitDx=0;exitDy=0;" edge="1" parent="1" source="ySuO9UoZPmW4dLaZ_qgD-1" target="ySuO9UoZPmW4dLaZ_qgD-12">
          <mxGeometry width="50" height="50" relative="1" as="geometry">
            <mxPoint x="190" y="635" as="sourcePoint" />
            <mxPoint x="230" y="670" as="targetPoint" />
          </mxGeometry>
        </mxCell>
        <mxCell id="ySuO9UoZPmW4dLaZ_qgD-12" value="telefone" style="ellipse;whiteSpace=wrap;html=1;" vertex="1" parent="1">
          <mxGeometry x="200" y="655" width="80" height="55" as="geometry" />
        </mxCell>
        <mxCell id="ySuO9UoZPmW4dLaZ_qgD-13" value="" style="rhombus;whiteSpace=wrap;html=1;" vertex="1" parent="1">
          <mxGeometry x="240" y="545" width="80" height="80" as="geometry" />
        </mxCell>
        <mxCell id="ySuO9UoZPmW4dLaZ_qgD-14" value="VISITA" style="whiteSpace=wrap;html=1;aspect=fixed;" vertex="1" parent="1">
          <mxGeometry x="360" y="545" width="80" height="80" as="geometry" />
        </mxCell>
        <mxCell id="ySuO9UoZPmW4dLaZ_qgD-15" value="" style="endArrow=none;html=1;rounded=0;" edge="1" parent="1">
          <mxGeometry width="50" height="50" relative="1" as="geometry">
            <mxPoint x="360" y="545" as="sourcePoint" />
            <mxPoint x="360" y="480" as="targetPoint" />
          </mxGeometry>
        </mxCell>
        <mxCell id="ySuO9UoZPmW4dLaZ_qgD-16" value="id_visita" style="ellipse;whiteSpace=wrap;html=1;" vertex="1" parent="1">
          <mxGeometry x="320" y="440" width="100" height="40" as="geometry" />
        </mxCell>
        <mxCell id="ySuO9UoZPmW4dLaZ_qgD-17" value="" style="endArrow=none;html=1;rounded=0;" edge="1" parent="1" target="ySuO9UoZPmW4dLaZ_qgD-18">
          <mxGeometry width="50" height="50" relative="1" as="geometry">
            <mxPoint x="430" y="545" as="sourcePoint" />
            <mxPoint x="460" y="490" as="targetPoint" />
          </mxGeometry>
        </mxCell>
        <mxCell id="ySuO9UoZPmW4dLaZ_qgD-18" value="data" style="ellipse;whiteSpace=wrap;html=1;" vertex="1" parent="1">
          <mxGeometry x="430" y="450" width="90" height="50" as="geometry" />
        </mxCell>
        <mxCell id="ySuO9UoZPmW4dLaZ_qgD-19" value="" style="endArrow=none;html=1;rounded=0;entryX=0;entryY=1;entryDx=0;entryDy=0;" edge="1" parent="1" target="ySuO9UoZPmW4dLaZ_qgD-14">
          <mxGeometry width="50" height="50" relative="1" as="geometry">
            <mxPoint x="340" y="680" as="sourcePoint" />
            <mxPoint x="370" y="625" as="targetPoint" />
          </mxGeometry>
        </mxCell>
        <mxCell id="ySuO9UoZPmW4dLaZ_qgD-20" value="hora" style="ellipse;whiteSpace=wrap;html=1;" vertex="1" parent="1">
          <mxGeometry x="300" y="670" width="80" height="30" as="geometry" />
        </mxCell>
        <mxCell id="ySuO9UoZPmW4dLaZ_qgD-21" value="" style="endArrow=none;html=1;rounded=0;" edge="1" parent="1">
          <mxGeometry width="50" height="50" relative="1" as="geometry">
            <mxPoint x="390" y="720" as="sourcePoint" />
            <mxPoint x="414" y="625" as="targetPoint" />
          </mxGeometry>
        </mxCell>
        <mxCell id="ySuO9UoZPmW4dLaZ_qgD-22" value="id_visitante" style="ellipse;whiteSpace=wrap;html=1;" vertex="1" parent="1">
          <mxGeometry x="355" y="700" width="90" height="30" as="geometry" />
        </mxCell>
        <mxCell id="ySuO9UoZPmW4dLaZ_qgD-23" value="" style="endArrow=none;html=1;rounded=0;exitX=0.875;exitY=1;exitDx=0;exitDy=0;exitPerimeter=0;" edge="1" parent="1" source="ySuO9UoZPmW4dLaZ_qgD-14">
          <mxGeometry width="50" height="50" relative="1" as="geometry">
            <mxPoint x="430" y="675" as="sourcePoint" />
            <mxPoint x="480" y="670" as="targetPoint" />
            <Array as="points">
              <mxPoint x="460" y="645" />
            </Array>
          </mxGeometry>
        </mxCell>
        <mxCell id="ySuO9UoZPmW4dLaZ_qgD-24" value="id_morador" style="ellipse;whiteSpace=wrap;html=1;" vertex="1" parent="1">
          <mxGeometry x="445" y="655" width="75" height="35" as="geometry" />
        </mxCell>
        <mxCell id="ySuO9UoZPmW4dLaZ_qgD-25" value="MORADOR" style="whiteSpace=wrap;html=1;aspect=fixed;" vertex="1" parent="1">
          <mxGeometry x="650" y="545" width="80" height="80" as="geometry" />
        </mxCell>
        <mxCell id="ySuO9UoZPmW4dLaZ_qgD-26" value="" style="rhombus;whiteSpace=wrap;html=1;" vertex="1" parent="1">
          <mxGeometry x="510" y="550" width="80" height="80" as="geometry" />
        </mxCell>
        <mxCell id="ySuO9UoZPmW4dLaZ_qgD-27" value="" style="endArrow=none;html=1;rounded=0;exitX=0;exitY=0;exitDx=0;exitDy=0;" edge="1" parent="1" source="ySuO9UoZPmW4dLaZ_qgD-25" target="ySuO9UoZPmW4dLaZ_qgD-28">
          <mxGeometry width="50" height="50" relative="1" as="geometry">
            <mxPoint x="640" y="545" as="sourcePoint" />
            <mxPoint x="620" y="490" as="targetPoint" />
          </mxGeometry>
        </mxCell>
        <mxCell id="ySuO9UoZPmW4dLaZ_qgD-28" value="id_morador" style="ellipse;whiteSpace=wrap;html=1;" vertex="1" parent="1">
          <mxGeometry x="580" y="450" width="100" height="30" as="geometry" />
        </mxCell>
        <mxCell id="ySuO9UoZPmW4dLaZ_qgD-29" value="" style="endArrow=none;html=1;rounded=0;" edge="1" parent="1" target="ySuO9UoZPmW4dLaZ_qgD-30">
          <mxGeometry width="50" height="50" relative="1" as="geometry">
            <mxPoint x="700" y="540" as="sourcePoint" />
            <mxPoint x="750" y="490" as="targetPoint" />
          </mxGeometry>
        </mxCell>
        <mxCell id="ySuO9UoZPmW4dLaZ_qgD-30" value="cpf" style="ellipse;whiteSpace=wrap;html=1;" vertex="1" parent="1">
          <mxGeometry x="690" y="450" width="100" height="30" as="geometry" />
        </mxCell>
        <mxCell id="ySuO9UoZPmW4dLaZ_qgD-31" value="" style="endArrow=none;html=1;rounded=0;" edge="1" parent="1">
          <mxGeometry width="50" height="50" relative="1" as="geometry">
            <mxPoint x="605" y="675" as="sourcePoint" />
            <mxPoint x="655" y="625" as="targetPoint" />
            <Array as="points">
              <mxPoint x="635" y="645" />
            </Array>
          </mxGeometry>
        </mxCell>
        <mxCell id="ySuO9UoZPmW4dLaZ_qgD-32" value="tel" style="ellipse;whiteSpace=wrap;html=1;" vertex="1" parent="1">
          <mxGeometry x="570" y="670" width="90" height="30" as="geometry" />
        </mxCell>
        <mxCell id="ySuO9UoZPmW4dLaZ_qgD-33" value="" style="endArrow=none;html=1;rounded=0;exitX=0.75;exitY=1;exitDx=0;exitDy=0;" edge="1" parent="1" source="ySuO9UoZPmW4dLaZ_qgD-25" target="ySuO9UoZPmW4dLaZ_qgD-34">
          <mxGeometry width="50" height="50" relative="1" as="geometry">
            <mxPoint x="670" y="720" as="sourcePoint" />
            <mxPoint x="710" y="625" as="targetPoint" />
          </mxGeometry>
        </mxCell>
        <mxCell id="ySuO9UoZPmW4dLaZ_qgD-34" value="bloco" style="ellipse;whiteSpace=wrap;html=1;" vertex="1" parent="1">
          <mxGeometry x="610" y="730" width="90" height="30" as="geometry" />
        </mxCell>
        <mxCell id="ySuO9UoZPmW4dLaZ_qgD-35" value="" style="endArrow=none;html=1;rounded=0;" edge="1" parent="1">
          <mxGeometry width="50" height="50" relative="1" as="geometry">
            <mxPoint x="740" y="700" as="sourcePoint" />
            <mxPoint x="730" y="625" as="targetPoint" />
          </mxGeometry>
        </mxCell>
        <mxCell id="ySuO9UoZPmW4dLaZ_qgD-36" value="ap" style="ellipse;whiteSpace=wrap;html=1;" vertex="1" parent="1">
          <mxGeometry x="710" y="690" width="90" height="40" as="geometry" />
        </mxCell>
        <mxCell id="ySuO9UoZPmW4dLaZ_qgD-37" value="" style="endArrow=none;html=1;rounded=0;" edge="1" parent="1" target="ySuO9UoZPmW4dLaZ_qgD-38">
          <mxGeometry width="50" height="50" relative="1" as="geometry">
            <mxPoint x="730" y="610" as="sourcePoint" />
            <mxPoint x="770" y="600" as="targetPoint" />
          </mxGeometry>
        </mxCell>
        <mxCell id="ySuO9UoZPmW4dLaZ_qgD-38" value="nome" style="ellipse;whiteSpace=wrap;html=1;" vertex="1" parent="1">
          <mxGeometry x="740" y="560" width="80" height="40" as="geometry" />
        </mxCell>
      </root>
    </mxGraphModel>
  </diagram>
</mxfile>
